PathFileType	4	(X/Y/Z)	Walk5.trc
DataRate	CameraRate	NumFrames	NumMarkers	Units	OrigDataRate	OrigDataStartFrame	OrigNumFrames
200.000000	200.000000	9	58	mm	200.000000	447	695
Frame#	Times		LToe		RBHD		LWRR		LElbow		LACR1		C7		RMT5		RToe		RTB2		LCAR		RTB3		LWRU		RCAR		RMT1		LElbowM		RFA1		RMMAL		LTH3		LASI		RCAL		RWRU		RLFC		LTH4		RElbow		LTB2		LMMAL		LPSI		RASI		RElbowM		LCAL		RPSI		LLFC		RTH3		LBHD		T10		LTH2		RFHD		RBack		LMT5		LUA1		RUA1		LFHD		RLMAL		RMFC		LLMAL		LMFC		RACR1		LTB1		RWRR		LTB4		LTB3		RTH4		RTB1		LMT1		RTH1		RTB4		RTH2		LTH1
			X1	Y1	Z1	X2	Y2	Z2	X3	Y3	Z3	X4	Y4	Z4	X5	Y5	Z5	X6	Y6	Z6	X7	Y7	Z7	X8	Y8	Z8	X9	Y9	Z9	X10	Y10	Z10	X11	Y11	Z11	X12	Y12	Z12	X13	Y13	Z13	X14	Y14	Z14	X15	Y15	Z15	X16	Y16	Z16	X17	Y17	Z17	X18	Y18	Z18	X19	Y19	Z19	X20	Y20	Z20	X21	Y21	Z21	X22	Y22	Z22	X23	Y23	Z23	X24	Y24	Z24	X25	Y25	Z25	X26	Y26	Z26	X27	Y27	Z27	X28	Y28	Z28	X29	Y29	Z29	X30	Y30	Z30	X31	Y31	Z31	X32	Y32	Z32	X33	Y33	Z33	X34	Y34	Z34	X35	Y35	Z35	X36	Y36	Z36	X37	Y37	Z37	X38	Y38	Z38	X39	Y39	Z39	X40	Y40	Z40	X41	Y41	Z41	X42	Y42	Z42	X43	Y43	Z43	X44	Y44	Z44	X45	Y45	Z45	X46	Y46	Z46	X47	Y47	Z47	X48	Y48	Z48	X49	Y49	Z49	X50	Y50	Z50	X51	Y51	Z51	X52	Y52	Z52	X53	Y53	Z53	X54	Y54	Z54	X55	Y55	Z55	X56	Y56	Z56	X57	Y57	Z57	X58	Y58	Z58

447	2.235	-220.97	38.398	-40.502	-322.56	1610.4	-55.778	-165.18	830.53	-278.9	-287.35	1084.1	-289.66	-263.5	1421.5	-158.38	-357.49	1483.1	7.8998	-103.3	58.478	150.26	-15.193	78.128	127.77	-149.67	323.48	142	-240.73	950.39	-292.18	-150.33	235.09	67.859	-93.529	832.8	-256.42	-294.07	787.28	271.82	-58.254	68.22	82.599	-334.69	1063.8	-221.05	-373.5	930.25	277.25	-178.74	107.42	40.898	-316.98	575.77	-123.8	-255.77	1037.4	-151.27	-260.21	61.503	49.885	-359.18	810.8	242.3	-156.76	556.34	149.79	-311.7	667.5	-146.17	-396.16	1090.5	280.94	-333.08	291.1	-92.841	-399.79	67.9	15.496	-453.89	1043.6	-39.429	-273.83	992.37	157.33	-428.18	1098.8	202.59	-487.44	33.968	-15.094	-459.12	1043	29.355	-332.9	511.84	-113.6	-171.99	600.13	153.17	-322.75	1605.4	80.874	-440.87	1232.2	-3.5652	-252.18	671.3	-103.61	-146.22	1647.5	-23.855	-386.87	1373.1	157.13	-311.45	24.912	-95.552	-268.55	1220.8	-243.81	-308.58	1244.6	247.13	-146.76	1646.4	51.001	-216.31	103.91	116.08	-168.67	519.49	24.436	-424.04	59.113	-66.382	-352.34	495.33	13.547	-254.07	1422.2	167.04	-305.79	382.67	-25.442	-281.26	836.35	226.57	-330.67	293.4	-20.986	-353.53	203.86	-18.427	-153.68	715.14	128.67	-113.63	416.89	72.927	-269.83	29.176	-17.536	-252	770.31	180.96	-131.99	321.45	68.922	-207.98	685.62	170.11	-307.44	758.54	-165.58
448	2.24	-220.89	38.221	-40.555	-317.77	1610	-55.807	-156.5	831.32	-278.28	-280.74	1083.9	-289.92	-258.78	1421.3	-158.38	-352.7	1482.7	7.9076	-84.518	58.231	150.53	3.2135	79.868	127.87	-139.24	322.65	142.18	-233	950.49	-292.09	-136.96	234.08	68.255	-84.917	834.25	-255.67	-289.86	786.98	271.69	-39.808	69.258	82.795	-328.1	1063.3	-221.43	-369.15	930.02	277.28	-161.36	105.54	41.364	-314.59	575.48	-123.92	-251.11	1037	-151.65	-241.63	57.565	50.38	-354.98	810.59	242.27	-152.77	555.35	149.65	-308.79	667.2	-146.25	-391.65	1090.3	281.05	-332.07	290.74	-92.865	-399.67	67.829	15.578	-449.11	1043.2	-39.056	-268.68	991.79	157.31	-423.75	1098.6	202.71	-487.45	34.013	-15.037	-454.16	1042.6	29.681	-330.94	511.52	-113.66	-167.95	599.18	153.04	-317.97	1605	80.839	-435.79	1231.3	-2.9812	-249.25	670.63	-103.59	-141.45	1647.2	-23.883	-382.03	1372.7	157.11	-311.41	24.855	-95.611	-262.89	1220.6	-243.97	-303.89	1244.3	247.13	-141.99	1646.1	50.985	-198.81	100.89	116.58	-164.29	518.13	24.241	-423.98	59.143	-66.323	-350.5	495.15	13.482	-249.2	1421.8	166.99	-304.39	382.19	-25.496	-277.04	836.05	226.44	-329.54	293.04	-21.034	-352.83	203.6	-18.422	-149.33	714.1	128.5	-106.14	416.93	72.974	-269.79	29.167	-17.461	-247.28	769.62	181.14	-121.37	320.99	69.127	-203.54	684.77	170.13	-303.97	758.21	-165.63
449	2.245	-220.8	38.044	-40.606	-312.95	1609.6	-55.825	-147.88	832.1	-277.63	-274.18	1083.6	-290.16	-254.04	1421	-158.37	-347.89	1482.3	7.9214	-65.807	58.276	150.78	21.456	81.896	127.87	-128.93	321.89	142.37	-225.33	950.58	-291.97	-123.71	233.21	68.67	-76.381	835.67	-254.88	-285.62	786.65	271.59	-21.522	70.53	82.925	-321.53	1062.7	-221.79	-364.77	929.75	277.32	-144.09	103.91	41.88	-312.17	575.18	-124.02	-246.48	1036.6	-152.01	-223.1	53.919	50.975	-350.76	810.34	242.25	-148.95	554.2	149.5	-305.85	666.9	-146.31	-387.1	1090.1	281.18	-331.05	290.37	-92.879	-399.55	67.76	15.661	-444.31	1042.8	-38.652	-263.49	991.15	157.29	-419.27	1098.4	202.84	-487.46	34.061	-14.977	-449.17	1042.1	30.032	-328.96	511.19	-113.71	-164.08	598.07	152.91	-313.17	1604.6	80.815	-430.66	1230.4	-2.3516	-246.32	669.96	-103.57	-136.66	1646.8	-23.899	-377.16	1372.3	157.09	-311.38	24.797	-95.669	-257.21	1220.5	-244.1	-299.15	1244	247.14	-137.19	1645.7	50.982	-181.34	98.124	117.14	-160.07	516.64	24.036	-423.92	59.174	-66.261	-348.63	494.97	13.426	-244.31	1421.3	166.94	-302.97	381.7	-25.551	-272.78	835.71	226.33	-328.43	292.68	-21.068	-352.13	203.34	-18.41	-145.08	712.89	128.35	-98.828	416.93	72.999	-269.74	29.163	-17.386	-242.65	768.8	181.3	-110.9	320.6	69.332	-199.22	683.78	170.14	-300.48	757.87	-165.67
450	2.25	-220.71	37.868	-40.657	-308.12	1609.2	-55.831	-139.34	832.86	-276.93	-267.65	1083.3	-290.4	-249.28	1420.6	-158.35	-343.06	1481.9	7.9416	-47.206	58.621	150.98	39.495	84.213	127.74	-118.74	321.21	142.56	-217.71	950.64	-291.81	-110.62	232.49	69.095	-67.921	837.08	-254.05	-281.36	786.28	271.52	-3.4358	72.037	82.979	-314.99	1062.1	-222.13	-360.35	929.46	277.39	-126.97	102.54	42.439	-309.72	574.86	-124.12	-241.91	1036.2	-152.34	-204.67	50.574	51.671	-346.5	810.05	242.26	-145.29	552.9	149.35	-302.89	666.59	-146.37	-382.5	1089.8	281.31	-330.02	290	-92.883	-399.44	67.693	15.745	-439.49	1042.3	-38.219	-258.24	990.46	157.27	-414.76	1098.1	202.99	-487.46	34.113	-14.912	-444.15	1041.6	30.408	-326.96	510.85	-113.75	-160.35	596.81	152.77	-308.36	1604.1	80.802	-425.52	1229.5	-1.69	-243.36	669.29	-103.54	-131.85	1646.4	-23.902	-372.27	1371.9	157.09	-311.34	24.739	-95.727	-251.53	1220.2	-244.21	-294.38	1243.6	247.16	-132.39	1645.2	50.991	-163.95	95.623	117.76	-156	515.03	23.821	-423.86	59.207	-66.195	-346.73	494.78	13.381	-239.39	1420.9	166.91	-301.53	381.22	-25.607	-268.5	835.32	226.25	-327.33	292.31	-21.092	-351.43	203.07	-18.392	-140.92	711.53	128.22	-91.693	416.92	72.997	-269.69	29.161	-17.31	-238.11	767.86	181.45	-100.59	320.27	69.531	-195.04	682.66	170.14	-296.98	757.52	-165.7
451	2.255	-220.61	37.692	-40.707	-303.26	1608.8	-55.826	-130.87	833.61	-276.19	-261.16	1083	-290.62	-244.49	1420.3	-158.31	-338.21	1481.4	7.9688	-28.762	59.271	151.14	57.284	86.819	127.48	-108.69	320.62	142.74	-210.16	950.69	-291.62	-97.703	231.92	69.524	-59.54	838.47	-253.19	-277.07	785.87	271.46	14.403	73.781	82.95	-308.48	1061.6	-222.45	-355.89	929.12	277.46	-110.05	101.43	43.036	-307.26	574.53	-124.2	-237.4	1035.7	-152.64	-186.38	47.535	52.468	-342.22	809.72	242.28	-141.77	551.46	149.2	-299.91	666.27	-146.41	-377.86	1089.5	281.46	-328.98	289.62	-92.878	-399.33	67.626	15.832	-434.65	1041.8	-37.757	-252.93	989.72	157.25	-410.2	1097.9	203.15	-487.47	34.168	-14.844	-439.11	1041	30.809	-324.94	510.51	-113.78	-156.76	595.41	152.62	-303.53	1603.6	80.802	-420.35	1228.5	-1.0104	-240.4	668.61	-103.49	-127.03	1646	-23.891	-367.35	1371.4	157.1	-311.31	24.681	-95.784	-245.84	1220	-244.29	-289.58	1243.2	247.2	-127.56	1644.8	51.012	-146.66	93.407	118.44	-152.06	513.31	23.6	-423.79	59.241	-66.125	-344.81	494.58	13.349	-234.45	1420.4	166.89	-300.07	380.72	-25.66	-264.18	834.89	226.18	-326.23	291.93	-21.104	-350.73	202.8	-18.367	-136.85	710.02	128.13	-84.733	416.88	72.963	-269.65	29.161	-17.236	-233.66	766.8	181.58	-90.467	320.01	69.718	-190.98	681.4	170.12	-293.46	757.14	-165.72
452	2.26	-220.51	37.517	-40.759	-298.39	1608.3	-55.809	-122.48	834.34	-275.42	-254.71	1082.6	-290.82	-239.67	1419.9	-158.26	-333.35	1480.9	8.0035	-10.528	60.222	151.24	74.777	89.705	127.09	-98.776	320.11	142.93	-202.67	950.71	-291.39	-84.996	231.5	69.95	-51.239	839.83	-252.29	-272.75	785.41	271.43	31.945	75.757	82.833	-302	1061	-222.74	-351.4	928.75	277.56	-93.368	100.57	43.66	-304.77	574.19	-124.27	-232.95	1035.2	-152.9	-168.3	44.799	53.358	-337.9	809.35	242.32	-138.37	549.91	149.04	-296.91	665.94	-146.44	-373.17	1089.2	281.62	-327.94	289.24	-92.864	-399.22	67.56	15.921	-429.79	1041.3	-37.269	-247.57	988.93	157.23	-405.6	1097.6	203.32	-487.47	34.228	-14.771	-434.04	1040.4	31.235	-322.91	510.17	-113.8	-153.28	593.87	152.46	-298.67	1603.1	80.814	-415.17	1227.6	-0.32573	-237.42	667.91	-103.44	-122.19	1645.5	-23.866	-362.4	1370.9	157.12	-311.28	24.624	-95.841	-240.15	1219.7	-244.35	-284.73	1242.7	247.24	-122.73	1644.3	51.046	-129.53	91.487	119.17	-148.24	511.5	23.375	-423.73	59.278	-66.051	-342.85	494.38	13.329	-229.49	1419.8	166.87	-298.6	380.22	-25.709	-259.83	834.42	226.14	-325.14	291.55	-21.106	-350.03	202.52	-18.335	-132.85	708.39	128.08	-77.942	416.82	72.897	-269.6	29.162	-17.163	-229.3	765.61	181.71	-80.533	319.81	69.888	-187.04	680.02	170.08	-289.91	756.75	-165.74
453	2.265	-220.41	37.342	-40.812	-293.51	1607.7	-55.78	-114.17	835.04	-274.6	-248.29	1082.3	-291.01	-234.83	1419.4	-158.19	-328.46	1480.3	8.0469	7.4349	61.463	151.29	91.92	92.857	126.55	-89.017	319.68	143.1	-195.24	950.71	-291.13	-72.526	231.22	70.364	-43.018	841.17	-251.35	-268.4	784.92	271.42	49.139	77.957	82.627	-295.57	1060.3	-223.02	-346.86	928.35	277.67	-76.985	99.963	44.3	-302.25	573.83	-124.33	-228.55	1034.7	-153.12	-150.48	42.361	54.331	-333.55	808.94	242.38	-135.06	548.24	148.87	-293.88	665.6	-146.44	-368.44	1088.8	281.78	-326.89	288.85	-92.843	-399.12	67.493	16.014	-424.91	1040.7	-36.755	-242.15	988.1	157.21	-400.95	1097.2	203.5	-487.48	34.291	-14.694	-428.95	1039.7	31.685	-320.86	509.82	-113.81	-149.9	592.21	152.29	-293.81	1602.5	80.84	-410	1226.7	0.3523	-234.43	667.21	-103.37	-117.33	1645	-23.825	-357.43	1370.4	157.16	-311.25	24.568	-95.899	-234.46	1219.4	-244.39	-279.86	1242.2	247.3	-117.88	1643.8	51.092	-112.62	89.867	119.94	-144.52	509.6	23.149	-423.66	59.317	-65.971	-340.87	494.16	13.324	-224.5	1419.3	166.87	-297.1	379.71	-25.751	-255.44	833.9	226.11	-324.04	291.16	-21.098	-349.32	202.24	-18.296	-128.93	706.64	128.05	-71.313	416.74	72.796	-269.56	29.162	-17.094	-225.03	764.3	181.81	-70.803	319.67	70.039	-183.21	678.52	170.04	-286.34	756.34	-165.74
454	2.27	-220.3	37.169	-40.866	-288.6	1607.2	-55.738	-105.93	835.71	-273.75	-241.92	1081.9	-291.18	-229.96	1418.9	-158.11	-323.56	1479.8	8.1005	25.063	62.978	151.28	108.66	96.255	125.88	-79.423	319.34	143.26	-187.87	950.67	-290.83	-60.321	231.09	70.759	-34.879	842.47	-250.39	-264.02	784.38	271.43	65.929	80.365	82.332	-289.18	1059.7	-223.27	-342.29	927.9	277.79	-60.953	99.593	44.943	-299.72	573.46	-124.38	-224.21	1034.1	-153.3	-132.97	40.207	55.372	-329.17	808.5	242.46	-131.82	546.5	148.7	-290.82	665.25	-146.43	-363.66	1088.4	281.96	-325.82	288.46	-92.815	-399.02	67.426	16.11	-420.01	1040.1	-36.219	-236.67	987.25	157.18	-396.26	1096.9	203.69	-487.48	34.358	-14.612	-423.83	1039	32.158	-318.79	509.48	-113.81	-146.58	590.44	152.1	-288.92	1601.9	80.879	-404.84	1225.9	1.0142	-231.42	666.5	-103.28	-112.46	1644.5	-23.769	-352.43	1369.9	157.21	-311.23	24.511	-95.958	-228.77	1219.1	-244.41	-274.94	1241.7	247.37	-113.01	1643.2	51.153	-95.981	88.543	120.73	-140.87	507.63	22.928	-423.59	59.358	-65.886	-338.85	493.94	13.335	-219.49	1418.7	166.89	-295.6	379.2	-25.785	-251.02	833.34	226.1	-322.94	290.77	-21.08	-348.61	201.95	-18.25	-125.07	704.81	128.06	-64.834	416.65	72.662	-269.52	29.159	-17.029	-220.84	762.88	181.91	-61.289	319.6	70.167	-179.46	676.92	169.98	-282.74	755.92	-165.74
455	2.275	-220.19	36.997	-40.922	-283.69	1606.6	-55.683	-97.773	836.34	-272.86	-235.58	1081.4	-291.33	-225.08	1418.4	-158.01	-318.64	1479.2	8.1668	42.286	64.741	151.21	124.93	99.869	125.08	-70.007	319.08	143.4	-180.57	950.61	-290.5	-48.41	231.08	71.128	-26.822	843.73	-249.39	-259.6	783.81	271.46	82.259	82.962	81.953	-282.83	1059	-223.5	-337.67	927.42	277.93	-45.326	99.442	45.572	-297.16	573.09	-124.42	-219.9	1033.5	-153.44	-115.84	38.319	56.458	-324.75	808.01	242.55	-128.6	544.69	148.53	-287.73	664.88	-146.41	-358.84	1087.9	282.14	-324.75	288.07	-92.779	-398.91	67.359	16.21	-415.09	1039.4	-35.661	-231.13	986.36	157.14	-391.53	1096.4	203.89	-487.47	34.429	-14.526	-418.68	1038.2	32.655	-316.7	509.13	-113.8	-143.3	588.59	151.9	-284.02	1601.2	80.934	-399.69	1225	1.653	-228.39	665.78	-103.17	-107.57	1643.9	-23.695	-347.4	1369.3	157.29	-311.2	24.455	-96.019	-223.08	1218.7	-244.41	-270	1241.2	247.46	-108.13	1642.6	51.227	-79.678	87.503	121.54	-137.27	505.62	22.715	-423.52	59.401	-65.796	-336.8	493.72	13.362	-214.46	1418.1	166.92	-294.07	378.67	-25.809	-246.57	832.73	226.11	-321.83	290.36	-21.051	-347.89	201.67	-18.196	-121.25	702.9	128.1	-58.493	416.53	72.5	-269.49	29.154	-16.969	-216.72	761.36	181.99	-52	319.57	70.269	-175.78	675.23	169.91	-279.1	755.48	-165.72
